TITLE ""
FILE "Disc5Track21.mp3" MP3
  TRACK 01 AUDIO
    TITLE "Disc5Track21_01"
    INDEX 01 00:00:00
  TRACK 02 AUDIO
    TITLE "Disc5Track21_02"
    INDEX 01 00:01:08
  TRACK 03 AUDIO
    TITLE "Disc5Track21_03"
    INDEX 01 00:04:06
  TRACK 04 AUDIO
    TITLE "Disc5Track21_04"
    INDEX 01 00:05:25
  TRACK 05 AUDIO
    TITLE "Disc5Track21_05"
    INDEX 01 00:08:18
  TRACK 06 AUDIO
    TITLE "Disc5Track21_06"
    INDEX 01 00:08:51
  TRACK 07 AUDIO
    TITLE "Disc5Track21_07"
    INDEX 01 00:09:74
  TRACK 08 AUDIO
    TITLE "Disc5Track21_08"
    INDEX 01 00:12:13
  TRACK 09 AUDIO
    TITLE "Disc5Track21_09"
    INDEX 01 00:13:34
  TRACK 10 AUDIO
    TITLE "Disc5Track21_10"
    INDEX 01 00:15:31
  TRACK 11 AUDIO
    TITLE "Disc5Track21_11"
    INDEX 01 00:15:65
  TRACK 12 AUDIO
    TITLE "Disc5Track21_12"
    INDEX 01 00:17:01
  TRACK 13 AUDIO
    TITLE "Disc5Track21_13"
    INDEX 01 00:18:75
  TRACK 14 AUDIO
    TITLE "Disc5Track21_14"
    INDEX 01 00:20:11
  TRACK 15 AUDIO
    TITLE "Disc5Track21_15"
    INDEX 01 00:23:54
  TRACK 16 AUDIO
    TITLE "Disc5Track21_16"
    INDEX 01 00:24:11
  TRACK 17 AUDIO
    TITLE "Disc5Track21_17"
    INDEX 01 00:25:30
  TRACK 18 AUDIO
    TITLE "Disc5Track21_18"
    INDEX 01 00:27:33
  TRACK 19 AUDIO
    TITLE "Disc5Track21_19"
    INDEX 01 00:28:50
  TRACK 20 AUDIO
    TITLE "Disc5Track21_20"
    INDEX 01 00:29:14
  TRACK 21 AUDIO
    TITLE "Disc5Track21_21"
    INDEX 01 00:30:49
  TRACK 22 AUDIO
    TITLE "Disc5Track21_22"
    INDEX 01 00:31:60
  TRACK 23 AUDIO
    TITLE "Disc5Track21_23"
    INDEX 01 00:33:22
  TRACK 24 AUDIO
    TITLE "Disc5Track21_24"
    INDEX 01 00:36:30
  TRACK 25 AUDIO
    TITLE "Disc5Track21_25"
    INDEX 01 00:36:63
  TRACK 26 AUDIO
    TITLE "Disc5Track21_26"
    INDEX 01 00:38:19
  TRACK 27 AUDIO
    TITLE "Disc5Track21_27"
    INDEX 01 00:41:09
  TRACK 28 AUDIO
    TITLE "Disc5Track21_28"
    INDEX 01 00:42:38
  TRACK 29 AUDIO
    TITLE "Disc5Track21_29"
    INDEX 01 00:44:43
  TRACK 30 AUDIO
    TITLE "Disc5Track21_30"
    INDEX 01 00:44:74
  TRACK 31 AUDIO
    TITLE "Disc5Track21_31"
    INDEX 01 00:46:36
  TRACK 32 AUDIO
    TITLE "Disc5Track21_32"
    INDEX 01 00:48:39
  TRACK 33 AUDIO
    TITLE "Disc5Track21_33"
    INDEX 01 00:49:73
  TRACK 34 AUDIO
    TITLE "Disc5Track21_34"
    INDEX 01 00:52:03
  TRACK 35 AUDIO
    TITLE "Disc5Track21_35"
    INDEX 01 00:52:36
  TRACK 36 AUDIO
    TITLE "Disc5Track21_36"
    INDEX 01 00:53:73
  TRACK 37 AUDIO
    TITLE "Disc5Track21_37"
    INDEX 01 00:56:15
  TRACK 38 AUDIO
    TITLE "Disc5Track21_38"
    INDEX 01 00:57:53
  TRACK 39 AUDIO
    TITLE "Disc5Track21_39"
    INDEX 01 01:00:67
  TRACK 40 AUDIO
    TITLE "Disc5Track21_40"
    INDEX 01 01:01:26
  TRACK 41 AUDIO
    TITLE "Disc5Track21_41"
    INDEX 01 01:02:54
  TRACK 42 AUDIO
    TITLE "Disc5Track21_42"
    INDEX 01 01:04:44
  TRACK 43 AUDIO
    TITLE "Disc5Track21_43"
    INDEX 01 01:05:69
  TRACK 44 AUDIO
    TITLE "Disc5Track21_44"
    INDEX 01 01:09:43
  TRACK 45 AUDIO
    TITLE "Disc5Track21_45"
    INDEX 01 01:09:74
  TRACK 46 AUDIO
    TITLE "Disc5Track21_46"
    INDEX 01 01:11:28
  TRACK 47 AUDIO
    TITLE "Disc5Track21_47"
    INDEX 01 01:12:24
  TRACK 48 AUDIO
    TITLE "Disc5Track21_48"
    INDEX 01 01:13:50
  TRACK 49 AUDIO
    TITLE "Disc5Track21_49"
    INDEX 01 01:15:47
  TRACK 50 AUDIO
    TITLE "Disc5Track21_50"
    INDEX 01 01:16:06
  TRACK 51 AUDIO
    TITLE "Disc5Track21_51"
    INDEX 01 01:17:38
  TRACK 52 AUDIO
    TITLE "Disc5Track21_52"
    INDEX 01 01:18:32
  TRACK 53 AUDIO
    TITLE "Disc5Track21_53"
    INDEX 01 01:19:65
  TRACK 54 AUDIO
    TITLE "Disc5Track21_54"
    INDEX 01 01:20:29
  TRACK 55 AUDIO
    TITLE "Disc5Track21_55"
    INDEX 01 01:21:42
  TRACK 56 AUDIO
    TITLE "Disc5Track21_56"
    INDEX 01 01:23:41
  TRACK 57 AUDIO
    TITLE "Disc5Track21_57"
    INDEX 01 01:24:54
  TRACK 58 AUDIO
    TITLE "Disc5Track21_58"
    INDEX 01 01:27:27
